<mxfile host="app.diagrams.net" modified="2022-05-24T08:19:24.767Z" agent="5.0 (Macintosh; Intel Mac OS X 10_15_7) AppleWebKit/537.36 (KHTML, like Gecko) Chrome/101.0.4951.64 Safari/537.36" etag="SIErZUAPjPgIK2OdZgnh" version="18.0.8" type="github">
  <diagram id="KoZ98nMhSqWGgLAd5fik" name="Page-1">
    <mxGraphModel dx="1248" dy="1780" grid="1" gridSize="10" guides="1" tooltips="1" connect="1" arrows="1" fold="1" page="1" pageScale="1" pageWidth="850" pageHeight="1100" math="0" shadow="0">
      <root>
        <mxCell id="0" />
        <mxCell id="1" parent="0" />
        <mxCell id="StiKOzU4GXZpJ1Omx3j6-12" value="Branch: Master" style="swimlane;" parent="1" vertex="1">
          <mxGeometry x="130" y="250" width="850" height="120" as="geometry" />
        </mxCell>
        <mxCell id="StiKOzU4GXZpJ1Omx3j6-19" style="edgeStyle=orthogonalEdgeStyle;rounded=0;orthogonalLoop=1;jettySize=auto;html=1;entryX=0;entryY=0.5;entryDx=0;entryDy=0;" parent="StiKOzU4GXZpJ1Omx3j6-12" target="StiKOzU4GXZpJ1Omx3j6-18" edge="1">
          <mxGeometry relative="1" as="geometry">
            <mxPoint x="660" y="70" as="sourcePoint" />
          </mxGeometry>
        </mxCell>
        <mxCell id="StiKOzU4GXZpJ1Omx3j6-1" value="2021.10e" style="rounded=1;whiteSpace=wrap;html=1;fillColor=#E6FFCC;" parent="StiKOzU4GXZpJ1Omx3j6-12" vertex="1">
          <mxGeometry x="70" y="40" width="120" height="60" as="geometry" />
        </mxCell>
        <mxCell id="StiKOzU4GXZpJ1Omx3j6-2" value="" style="rounded=1;whiteSpace=wrap;html=1;" parent="StiKOzU4GXZpJ1Omx3j6-12" vertex="1">
          <mxGeometry x="235" y="40" width="120" height="60" as="geometry" />
        </mxCell>
        <mxCell id="StiKOzU4GXZpJ1Omx3j6-4" style="edgeStyle=orthogonalEdgeStyle;rounded=0;orthogonalLoop=1;jettySize=auto;html=1;entryX=0;entryY=0.5;entryDx=0;entryDy=0;" parent="StiKOzU4GXZpJ1Omx3j6-12" source="StiKOzU4GXZpJ1Omx3j6-1" target="StiKOzU4GXZpJ1Omx3j6-2" edge="1">
          <mxGeometry relative="1" as="geometry" />
        </mxCell>
        <mxCell id="StiKOzU4GXZpJ1Omx3j6-5" value="2021.12" style="rounded=1;whiteSpace=wrap;html=1;fillColor=#E6FFCC;" parent="StiKOzU4GXZpJ1Omx3j6-12" vertex="1">
          <mxGeometry x="390" y="40" width="120" height="60" as="geometry" />
        </mxCell>
        <mxCell id="StiKOzU4GXZpJ1Omx3j6-6" value="" style="edgeStyle=orthogonalEdgeStyle;rounded=0;orthogonalLoop=1;jettySize=auto;html=1;" parent="StiKOzU4GXZpJ1Omx3j6-12" source="StiKOzU4GXZpJ1Omx3j6-2" target="StiKOzU4GXZpJ1Omx3j6-5" edge="1">
          <mxGeometry relative="1" as="geometry" />
        </mxCell>
        <mxCell id="StiKOzU4GXZpJ1Omx3j6-14" style="edgeStyle=orthogonalEdgeStyle;rounded=0;orthogonalLoop=1;jettySize=auto;html=1;entryX=0;entryY=0.5;entryDx=0;entryDy=0;" parent="StiKOzU4GXZpJ1Omx3j6-12" source="StiKOzU4GXZpJ1Omx3j6-5" target="StiKOzU4GXZpJ1Omx3j6-15" edge="1">
          <mxGeometry relative="1" as="geometry">
            <mxPoint x="540" y="70" as="targetPoint" />
          </mxGeometry>
        </mxCell>
        <mxCell id="StiKOzU4GXZpJ1Omx3j6-18" value="2022.04" style="rounded=1;whiteSpace=wrap;html=1;dashed=1;" parent="StiKOzU4GXZpJ1Omx3j6-12" vertex="1">
          <mxGeometry x="710" y="40" width="120" height="60" as="geometry" />
        </mxCell>
        <mxCell id="StiKOzU4GXZpJ1Omx3j6-15" value="current" style="rounded=1;whiteSpace=wrap;html=1;" parent="StiKOzU4GXZpJ1Omx3j6-12" vertex="1">
          <mxGeometry x="550" y="40" width="120" height="60" as="geometry" />
        </mxCell>
        <mxCell id="StiKOzU4GXZpJ1Omx3j6-3" value="" style="endArrow=classic;html=1;rounded=0;entryX=0;entryY=0.5;entryDx=0;entryDy=0;" parent="1" target="StiKOzU4GXZpJ1Omx3j6-1" edge="1">
          <mxGeometry width="50" height="50" relative="1" as="geometry">
            <mxPoint x="30" y="320" as="sourcePoint" />
            <mxPoint x="450" y="310" as="targetPoint" />
          </mxGeometry>
        </mxCell>
        <mxCell id="StiKOzU4GXZpJ1Omx3j6-8" value="Branch: Stable" style="swimlane;" parent="1" vertex="1">
          <mxGeometry x="130" y="90" width="850" height="120" as="geometry" />
        </mxCell>
        <mxCell id="StiKOzU4GXZpJ1Omx3j6-7" value="2021.12" style="rounded=1;whiteSpace=wrap;html=1;fillColor=#E6FFCC;" parent="StiKOzU4GXZpJ1Omx3j6-8" vertex="1">
          <mxGeometry x="390" y="40" width="120" height="60" as="geometry" />
        </mxCell>
        <mxCell id="StiKOzU4GXZpJ1Omx3j6-20" value="2022.04" style="rounded=1;whiteSpace=wrap;html=1;fillColor=#E6FFCC;dashed=1;" parent="StiKOzU4GXZpJ1Omx3j6-8" vertex="1">
          <mxGeometry x="710" y="40" width="120" height="60" as="geometry" />
        </mxCell>
        <mxCell id="StiKOzU4GXZpJ1Omx3j6-57" value="commits" style="rounded=1;whiteSpace=wrap;html=1;dashed=1;fillColor=#FFCCCC;" parent="StiKOzU4GXZpJ1Omx3j6-8" vertex="1">
          <mxGeometry x="550" y="40" width="120" height="60" as="geometry" />
        </mxCell>
        <mxCell id="StiKOzU4GXZpJ1Omx3j6-61" value="" style="endArrow=classic;html=1;rounded=0;exitX=1;exitY=0.5;exitDx=0;exitDy=0;entryX=0;entryY=0.5;entryDx=0;entryDy=0;" parent="StiKOzU4GXZpJ1Omx3j6-8" source="StiKOzU4GXZpJ1Omx3j6-57" target="StiKOzU4GXZpJ1Omx3j6-20" edge="1">
          <mxGeometry width="50" height="50" relative="1" as="geometry">
            <mxPoint x="580" y="120" as="sourcePoint" />
            <mxPoint x="630" y="70" as="targetPoint" />
          </mxGeometry>
        </mxCell>
        <mxCell id="StiKOzU4GXZpJ1Omx3j6-9" value="" style="endArrow=classic;html=1;rounded=0;exitX=0.5;exitY=0;exitDx=0;exitDy=0;entryX=0.5;entryY=1;entryDx=0;entryDy=0;" parent="1" source="StiKOzU4GXZpJ1Omx3j6-5" target="StiKOzU4GXZpJ1Omx3j6-7" edge="1">
          <mxGeometry width="50" height="50" relative="1" as="geometry">
            <mxPoint x="400" y="280" as="sourcePoint" />
            <mxPoint x="450" y="230" as="targetPoint" />
          </mxGeometry>
        </mxCell>
        <mxCell id="StiKOzU4GXZpJ1Omx3j6-10" value="merge request Assign to Ops" style="edgeLabel;html=1;align=center;verticalAlign=middle;resizable=0;points=[];" parent="StiKOzU4GXZpJ1Omx3j6-9" vertex="1" connectable="0">
          <mxGeometry x="-0.3564" y="-2" relative="1" as="geometry">
            <mxPoint x="-2" y="-28" as="offset" />
          </mxGeometry>
        </mxCell>
        <mxCell id="StiKOzU4GXZpJ1Omx3j6-11" value="" style="endArrow=classic;html=1;rounded=0;entryX=0;entryY=0.5;entryDx=0;entryDy=0;" parent="1" target="StiKOzU4GXZpJ1Omx3j6-7" edge="1">
          <mxGeometry width="50" height="50" relative="1" as="geometry">
            <mxPoint x="20" y="160" as="sourcePoint" />
            <mxPoint x="450" y="230" as="targetPoint" />
          </mxGeometry>
        </mxCell>
        <mxCell id="StiKOzU4GXZpJ1Omx3j6-16" value="commits" style="rounded=1;whiteSpace=wrap;html=1;" parent="1" vertex="1">
          <mxGeometry x="375" y="300" width="120" height="60" as="geometry" />
        </mxCell>
        <mxCell id="StiKOzU4GXZpJ1Omx3j6-21" value="" style="endArrow=classic;html=1;rounded=0;exitX=0.5;exitY=0;exitDx=0;exitDy=0;entryX=0.5;entryY=1;entryDx=0;entryDy=0;" parent="1" source="StiKOzU4GXZpJ1Omx3j6-18" target="StiKOzU4GXZpJ1Omx3j6-20" edge="1">
          <mxGeometry width="50" height="50" relative="1" as="geometry">
            <mxPoint x="440" y="280" as="sourcePoint" />
            <mxPoint x="490" y="230" as="targetPoint" />
          </mxGeometry>
        </mxCell>
        <mxCell id="StiKOzU4GXZpJ1Omx3j6-22" value="merge request Assign to Ops" style="edgeLabel;html=1;align=center;verticalAlign=middle;resizable=0;points=[];" parent="StiKOzU4GXZpJ1Omx3j6-21" vertex="1" connectable="0">
          <mxGeometry x="0.248" relative="1" as="geometry">
            <mxPoint y="2" as="offset" />
          </mxGeometry>
        </mxCell>
        <mxCell id="StiKOzU4GXZpJ1Omx3j6-24" value="Branch: Feature (Example: superset-add-send-email)" style="swimlane;" parent="1" vertex="1">
          <mxGeometry x="130" y="420" width="850" height="120" as="geometry" />
        </mxCell>
        <mxCell id="StiKOzU4GXZpJ1Omx3j6-37" value="feature" style="rounded=1;whiteSpace=wrap;html=1;" parent="StiKOzU4GXZpJ1Omx3j6-24" vertex="1">
          <mxGeometry x="390" y="40" width="120" height="60" as="geometry" />
        </mxCell>
        <mxCell id="StiKOzU4GXZpJ1Omx3j6-43" value="commits" style="rounded=1;whiteSpace=wrap;html=1;" parent="StiKOzU4GXZpJ1Omx3j6-24" vertex="1">
          <mxGeometry x="540" y="40" width="120" height="60" as="geometry" />
        </mxCell>
        <mxCell id="StiKOzU4GXZpJ1Omx3j6-42" value="" style="endArrow=classic;html=1;rounded=0;exitX=1;exitY=0.5;exitDx=0;exitDy=0;entryX=0;entryY=0.5;entryDx=0;entryDy=0;" parent="StiKOzU4GXZpJ1Omx3j6-24" source="StiKOzU4GXZpJ1Omx3j6-37" target="StiKOzU4GXZpJ1Omx3j6-43" edge="1">
          <mxGeometry width="50" height="50" relative="1" as="geometry">
            <mxPoint x="350" y="-60" as="sourcePoint" />
            <mxPoint x="400" y="-110" as="targetPoint" />
          </mxGeometry>
        </mxCell>
        <mxCell id="StiKOzU4GXZpJ1Omx3j6-44" value="commits" style="rounded=1;whiteSpace=wrap;html=1;" parent="StiKOzU4GXZpJ1Omx3j6-24" vertex="1">
          <mxGeometry x="550" y="50" width="120" height="60" as="geometry" />
        </mxCell>
        <mxCell id="StiKOzU4GXZpJ1Omx3j6-36" value="" style="endArrow=classic;html=1;rounded=0;" parent="1" edge="1">
          <mxGeometry width="50" height="50" relative="1" as="geometry">
            <mxPoint x="580" y="370" as="sourcePoint" />
            <mxPoint x="580" y="420" as="targetPoint" />
          </mxGeometry>
        </mxCell>
        <mxCell id="StiKOzU4GXZpJ1Omx3j6-41" value="Base on" style="edgeLabel;html=1;align=center;verticalAlign=middle;resizable=0;points=[];" parent="StiKOzU4GXZpJ1Omx3j6-36" vertex="1" connectable="0">
          <mxGeometry x="-0.32" y="-2" relative="1" as="geometry">
            <mxPoint x="2" y="3" as="offset" />
          </mxGeometry>
        </mxCell>
        <mxCell id="StiKOzU4GXZpJ1Omx3j6-45" value="" style="endArrow=classic;html=1;rounded=0;exitX=0.5;exitY=0;exitDx=0;exitDy=0;" parent="1" source="StiKOzU4GXZpJ1Omx3j6-44" edge="1">
          <mxGeometry width="50" height="50" relative="1" as="geometry">
            <mxPoint x="480" y="360" as="sourcePoint" />
            <mxPoint x="740" y="370" as="targetPoint" />
          </mxGeometry>
        </mxCell>
        <mxCell id="StiKOzU4GXZpJ1Omx3j6-46" value="merge request Assign to Product" style="edgeLabel;html=1;align=center;verticalAlign=middle;resizable=0;points=[];" parent="StiKOzU4GXZpJ1Omx3j6-45" vertex="1" connectable="0">
          <mxGeometry x="0.3441" y="2" relative="1" as="geometry">
            <mxPoint x="2" y="-13" as="offset" />
          </mxGeometry>
        </mxCell>
        <mxCell id="StiKOzU4GXZpJ1Omx3j6-48" value="Branch: Adhoc (Example: fix-bug)" style="swimlane;" parent="1" vertex="1">
          <mxGeometry x="130" y="-70" width="850" height="120" as="geometry" />
        </mxCell>
        <mxCell id="StiKOzU4GXZpJ1Omx3j6-49" value="bug fix" style="rounded=1;whiteSpace=wrap;html=1;" parent="StiKOzU4GXZpJ1Omx3j6-48" vertex="1">
          <mxGeometry x="390" y="40" width="120" height="60" as="geometry" />
        </mxCell>
        <mxCell id="StiKOzU4GXZpJ1Omx3j6-50" value="commits" style="rounded=1;whiteSpace=wrap;html=1;" parent="StiKOzU4GXZpJ1Omx3j6-48" vertex="1">
          <mxGeometry x="550" y="40" width="120" height="60" as="geometry" />
        </mxCell>
        <mxCell id="StiKOzU4GXZpJ1Omx3j6-51" value="" style="endArrow=classic;html=1;rounded=0;exitX=1;exitY=0.5;exitDx=0;exitDy=0;entryX=0;entryY=0.5;entryDx=0;entryDy=0;" parent="StiKOzU4GXZpJ1Omx3j6-48" source="StiKOzU4GXZpJ1Omx3j6-49" target="StiKOzU4GXZpJ1Omx3j6-50" edge="1">
          <mxGeometry width="50" height="50" relative="1" as="geometry">
            <mxPoint x="350" y="-60" as="sourcePoint" />
            <mxPoint x="400" y="-110" as="targetPoint" />
          </mxGeometry>
        </mxCell>
        <mxCell id="StiKOzU4GXZpJ1Omx3j6-52" value="commits" style="rounded=1;whiteSpace=wrap;html=1;" parent="StiKOzU4GXZpJ1Omx3j6-48" vertex="1">
          <mxGeometry x="560" y="50" width="120" height="60" as="geometry" />
        </mxCell>
        <mxCell id="StiKOzU4GXZpJ1Omx3j6-56" value="" style="endArrow=classic;html=1;rounded=0;" parent="1" edge="1">
          <mxGeometry width="50" height="50" relative="1" as="geometry">
            <mxPoint x="580" y="90" as="sourcePoint" />
            <mxPoint x="580" y="50" as="targetPoint" />
          </mxGeometry>
        </mxCell>
        <mxCell id="StiKOzU4GXZpJ1Omx3j6-63" value="base on" style="edgeLabel;html=1;align=center;verticalAlign=middle;resizable=0;points=[];" parent="StiKOzU4GXZpJ1Omx3j6-56" vertex="1" connectable="0">
          <mxGeometry x="0.252" y="-1" relative="1" as="geometry">
            <mxPoint x="-1" y="5" as="offset" />
          </mxGeometry>
        </mxCell>
        <mxCell id="StiKOzU4GXZpJ1Omx3j6-58" value="" style="endArrow=classic;html=1;rounded=0;exitX=0.5;exitY=1;exitDx=0;exitDy=0;entryX=0.5;entryY=0;entryDx=0;entryDy=0;" parent="1" source="StiKOzU4GXZpJ1Omx3j6-50" target="StiKOzU4GXZpJ1Omx3j6-57" edge="1">
          <mxGeometry width="50" height="50" relative="1" as="geometry">
            <mxPoint x="710" y="210" as="sourcePoint" />
            <mxPoint x="760" y="160" as="targetPoint" />
          </mxGeometry>
        </mxCell>
        <mxCell id="StiKOzU4GXZpJ1Omx3j6-62" value="merge request -&amp;gt; Ops" style="edgeLabel;html=1;align=center;verticalAlign=middle;resizable=0;points=[];" parent="StiKOzU4GXZpJ1Omx3j6-58" vertex="1" connectable="0">
          <mxGeometry x="-0.252" y="1" relative="1" as="geometry">
            <mxPoint as="offset" />
          </mxGeometry>
        </mxCell>
        <mxCell id="StiKOzU4GXZpJ1Omx3j6-60" value="" style="endArrow=classic;html=1;rounded=0;exitX=1;exitY=0.5;exitDx=0;exitDy=0;" parent="1" source="StiKOzU4GXZpJ1Omx3j6-7" edge="1">
          <mxGeometry width="50" height="50" relative="1" as="geometry">
            <mxPoint x="710" y="210" as="sourcePoint" />
            <mxPoint x="680" y="160" as="targetPoint" />
          </mxGeometry>
        </mxCell>
        <mxCell id="StiKOzU4GXZpJ1Omx3j6-70" value="" style="endArrow=classic;html=1;rounded=0;exitX=1;exitY=0.5;exitDx=0;exitDy=0;entryX=1.004;entryY=0.068;entryDx=0;entryDy=0;dashed=1;entryPerimeter=0;" parent="1" source="StiKOzU4GXZpJ1Omx3j6-48" target="StiKOzU4GXZpJ1Omx3j6-12" edge="1">
          <mxGeometry width="50" height="50" relative="1" as="geometry">
            <mxPoint x="630" y="310" as="sourcePoint" />
            <mxPoint x="680" y="260" as="targetPoint" />
            <Array as="points">
              <mxPoint x="1080" y="-10" />
              <mxPoint x="1080" y="258" />
            </Array>
          </mxGeometry>
        </mxCell>
        <mxCell id="StiKOzU4GXZpJ1Omx3j6-71" value="merge request to master" style="edgeLabel;html=1;align=center;verticalAlign=middle;resizable=0;points=[];" parent="StiKOzU4GXZpJ1Omx3j6-70" vertex="1" connectable="0">
          <mxGeometry x="-0.5036" y="2" relative="1" as="geometry">
            <mxPoint x="3" y="32" as="offset" />
          </mxGeometry>
        </mxCell>
      </root>
    </mxGraphModel>
  </diagram>
</mxfile>
